<?xml version="1.0" encoding="utf-8"?>
<!-- Generator: Adobe Illustrator 17.0.0, SVG Export Plug-In . SVG Version: 6.00 Build 0)  -->
<!DOCTYPE svg PUBLIC "-//W3C//DTD SVG 1.1//EN" "http://www.w3.org/Graphics/SVG/1.1/DTD/svg11.dtd">
<svg version="1.1" id="Calque_1" xmlns="http://www.w3.org/2000/svg" xmlns:xlink="http://www.w3.org/1999/xlink" x="0px" y="0px"
	 width="550.608px" height="1221.716px" viewBox="0 0 550.608 1221.716" enable-background="new 0 0 550.608 1221.716"
	 xml:space="preserve">
<g>
	<rect x="24.743" y="82.353" fill="#FCD400" width="16.811" height="16.81"/>
	<rect x="188.216" y="142.497" fill="#FCD400" width="17.531" height="16.812"/>
	<rect x="346.016" y="24.859" fill="#FCD400" width="16.812" height="16.818"/>
	<rect x="456.574" y="139.537" fill="#FCD400" width="16.81" height="16.807"/>
	<rect x="456.572" y="24.863" fill="#FCD400" width="16.812" height="16.809"/>
	<rect x="509.053" y="24.863" fill="#FCD400" width="16.812" height="16.81"/>
	<rect x="82.419" y="449.406" fill="#FCD400" width="16.812" height="16.805"/>
	<rect x="186.436" y="449.41" fill="#FCD400" width="16.809" height="16.801"/>
	<rect x="222.936" y="536.747" fill="#FCD400" width="16.818" height="16.812"/>
	<rect x="250.446" y="609.558" fill="#FCD400" width="16.812" height="16.82"/>
	<rect x="24.749" y="952.697" fill="#FCD400" width="16.81" height="16.812"/>
	<rect x="75.866" y="839.376" fill="#FCD400" width="16.812" height="16.809"/>
	<rect x="109.784" y="840.372" fill="#FCD400" width="16.811" height="16.816"/>
	<rect x="109.784" y="929.638" fill="#FCD400" width="16.82" height="16.81"/>
	<rect x="24.743" y="1121.536" fill="#FCD400" width="16.815" height="16.81"/>
	<rect x="509.049" y="202.919" fill="#FCD400" width="16.814" height="16.812"/>
	<rect x="452.555" y="281.419" fill="#FCD400" width="16.816" height="16.811"/>
	<rect x="358.674" y="276.158" fill="#FCD400" width="16.809" height="16.807"/>
	<rect x="509.047" y="336.345" fill="#FCD400" width="16.816" height="16.814"/>
	<rect x="509.047" y="272.583" fill="#FCD400" width="16.816" height="16.812"/>
	<rect x="509.053" y="411.455" fill="#FCD400" width="16.812" height="16.81"/>
	<rect x="509.053" y="472.519" fill="#FCD400" width="16.812" height="16.811"/>
	<rect x="295.292" y="539.804" fill="#FCD400" width="16.816" height="16.814"/>
	<rect x="456.344" y="653.417" fill="#FCD400" width="16.809" height="16.816"/>
	<rect x="509.056" y="716.828" fill="#FCD400" width="16.809" height="16.812"/>
	<line fill="#FCD400" x1="509.049" y1="779.087" x2="525.863" y2="779.087"/>
	<rect x="509.049" y="952.695" fill="#FCD400" width="16.814" height="16.81"/>
	<rect x="509.053" y="1063.056" fill="#FCD400" width="16.812" height="16.809"/>
	<rect x="345.868" y="1180.044" fill="#FCD400" width="16.808" height="16.812"/>
	<rect x="509.053" y="1121.484" fill="#FCD400" width="16.812" height="16.812"/>
	<rect x="345.868" y="1005.611" fill="#FCD400" width="16.806" height="16.815"/>
	<rect x="456.342" y="539.808" fill="#FCD400" width="16.812" height="16.816"/>
	<rect x="188.216" y="202.925" fill="#FCD400" width="17.531" height="16.812"/>
</g>
</svg>
